<svg width="100" height="30" viewBox="0 0 100 30" fill="none" xmlns="http://www.w3.org/2000/svg">
<path fill-rule="evenodd" clip-rule="evenodd" d="M61.8181 23.4616C56.0488 27.7273 47.6572 30 40.4195 30C30.2796 30 21.1887 26.2587 14.2656 20.035C13.7411 19.5455 14.1957 18.8811 14.86 19.2657C22.3076 23.6014 31.5034 26.1888 41.0139 26.1888C47.4125 26.1888 54.4754 24.8601 60.9789 22.0979C61.9579 21.7133 62.7621 22.7623 61.8181 23.4616Z" fill="#888888"/>
<path fill-rule="evenodd" clip-rule="evenodd" d="M64.2308 20.6993C63.4965 19.7553 59.3357 20.2448 57.4825 20.4895C56.9231 20.5595 56.8182 20.07 57.3427 19.7203C60.6643 17.3776 66.0839 18.0769 66.7133 18.8462C67.3427 19.6154 66.5385 25.07 63.4266 27.6574C62.9371 28.042 62.4825 27.8322 62.6923 27.3077C63.3916 25.5595 64.9651 21.6783 64.2308 20.6993Z" fill="#888888"/>
<path fill-rule="evenodd" clip-rule="evenodd" d="M57.5874 3.28671V1.01398C57.5874 0.664333 57.8322 0.454541 58.1469 0.454541H68.2867C68.6014 0.454541 68.8811 0.699298 68.8811 1.01398V2.93706C68.8811 3.25174 68.6014 3.67133 68.1119 4.37063L62.8671 11.8531C64.8252 11.8182 66.8881 12.0979 68.6364 13.0769C69.021 13.2867 69.1259 13.6364 69.1609 13.951V16.3636C69.1609 16.7133 68.8112 17.0979 68.4266 16.8881C65.3147 15.2447 61.1539 15.0699 57.7273 16.9231C57.3776 17.0979 56.993 16.7482 56.993 16.3986V14.0909C56.993 13.7413 56.993 13.1119 57.3776 12.5524L63.4616 3.84615H58.1818C57.8671 3.84615 57.5874 3.6014 57.5874 3.28671ZM20.6294 17.3776H17.5525C17.2727 17.3426 17.028 17.1329 16.993 16.8531V1.04895C16.993 0.734266 17.2727 0.489508 17.5874 0.489508H20.4545C20.7692 0.489508 20.979 0.734263 21.014 1.01398V3.07692H21.0839C21.8182 1.08391 23.2518 0.139858 25.1399 0.139858C27.0629 0.139858 28.2867 1.08391 29.1259 3.07692C29.8601 1.08391 31.5734 0.139858 33.3916 0.139858C34.6853 0.139858 36.0839 0.664333 36.9581 1.88811C37.9371 3.21678 37.7273 5.13986 37.7273 6.85315V16.8531C37.7273 17.1678 37.4476 17.4126 37.1329 17.4126H34.0909C33.7762 17.3776 33.5315 17.1329 33.5315 16.8531V8.46153C33.5315 7.79719 33.6014 6.11887 33.4615 5.4895C33.2168 4.44055 32.5525 4.12587 31.6434 4.12587C30.9091 4.12587 30.1049 4.61538 29.7902 5.41958C29.4755 6.22377 29.5105 7.55244 29.5105 8.46153V16.8531C29.5105 17.1678 29.2308 17.4126 28.9161 17.4126H25.8392C25.5245 17.3776 25.2797 17.1329 25.2797 16.8531V8.46153C25.2797 6.71328 25.5594 4.0909 23.3916 4.0909C21.1888 4.0909 21.2587 6.60838 21.2587 8.46153V16.8531C21.2238 17.1329 20.979 17.3776 20.6294 17.3776ZM77.6224 0.139858C82.2028 0.139858 84.6853 4.05594 84.6853 9.05594C84.6853 13.8811 81.9581 17.7273 77.6224 17.7273C73.1469 17.7273 70.6993 13.8112 70.6993 8.91608C70.6644 3.98601 73.1469 0.139858 77.6224 0.139858ZM77.6224 3.3916C75.3497 3.3916 75.2098 6.5035 75.2098 8.42657C75.2098 10.3496 75.1748 14.4755 77.5874 14.4755C79.965 14.4755 80.1049 11.1538 80.1049 9.12587C80.1049 7.7972 80.035 6.18881 79.6504 4.93007C79.3007 3.81119 78.6014 3.3916 77.6224 3.3916ZM90.5944 17.3776H87.5175C87.2028 17.3426 86.9581 17.0979 86.9581 16.8182V0.979016C86.993 0.699296 87.2378 0.454541 87.5525 0.454541H90.4196C90.6993 0.454541 90.9091 0.664338 90.979 0.909093V3.32168H91.049C91.9231 1.15385 93.1119 0.139858 95.2448 0.139858C96.6084 0.139858 97.9721 0.629364 98.8462 1.993C99.6504 3.25174 99.6504 5.38461 99.6504 6.92307V16.8881C99.6154 17.1678 99.3706 17.3776 99.056 17.3776H95.979C95.6993 17.3426 95.4546 17.1329 95.4196 16.8881V8.2867C95.4196 6.53845 95.6294 4.02098 93.4965 4.02098C92.7623 4.02098 92.063 4.51049 91.7133 5.27972C91.2937 6.25874 91.2238 7.20279 91.2238 8.2867V16.8182C91.1888 17.1329 90.9091 17.3776 90.5944 17.3776ZM49.5105 9.82517C49.5105 11.014 49.5455 12.028 48.9511 13.1119C48.4615 13.986 47.6923 14.5105 46.8182 14.5105C45.6294 14.5105 44.9301 13.6014 44.9301 12.2727C44.9301 9.65035 47.2727 9.16083 49.5105 9.16083V9.82517ZM52.6224 17.3427C52.4126 17.5175 52.1329 17.5524 51.8881 17.4126C50.8741 16.5734 50.6643 16.1538 50.1049 15.3496C48.4266 17.0629 47.2028 17.5874 45.035 17.5874C42.4476 17.5874 40.4196 15.979 40.4196 12.7972C40.4196 10.2797 41.7832 8.60139 43.7063 7.76223C45.3846 7.02796 47.7273 6.88811 49.5105 6.67832V6.2937C49.5105 5.55944 49.5804 4.68532 49.1259 4.05594C48.7413 3.4965 48.042 3.25174 47.4126 3.25174C46.2238 3.25174 45.1748 3.84615 44.9301 5.1049C44.8601 5.38462 44.6853 5.66433 44.4056 5.66433L41.4336 5.34964C41.1888 5.27971 40.9091 5.10489 40.979 4.72028C41.6783 1.08392 44.9301 0 47.8671 0C49.3706 0 51.3287 0.384613 52.5175 1.53846C54.021 2.93706 53.8811 4.82518 53.8811 6.85315V11.6433C53.8811 13.0769 54.4755 13.7063 55.035 14.5105C55.2448 14.7902 55.2797 15.1399 55.035 15.3147C54.3706 15.8392 53.2518 16.8182 52.6224 17.3427ZM9.12588 9.82517C9.12588 11.014 9.16084 12.028 8.56643 13.1119C8.07692 13.986 7.30769 14.5105 6.43357 14.5105C5.24475 14.5105 4.54546 13.6014 4.54546 12.2727C4.54546 9.65035 6.88812 9.16083 9.12588 9.16083V9.82517ZM12.2028 17.3427C11.993 17.5175 11.7133 17.5524 11.4685 17.4126C10.4545 16.5734 10.2448 16.1538 9.68532 15.3496C8.00699 17.0629 6.78322 17.5874 4.61538 17.5874C2.02797 17.5874 0 15.979 0 12.7972C0 10.2797 1.36363 8.60139 3.28671 7.76223C4.96503 7.02796 7.30769 6.88811 9.09091 6.67832V6.2937C9.09091 5.55944 9.16084 4.68532 8.70629 4.05594C8.32168 3.4965 7.62238 3.25174 6.99301 3.25174C5.8042 3.25174 4.75524 3.84615 4.51049 5.1049C4.44056 5.38462 4.26573 5.66433 3.98601 5.66433L1.01398 5.34964C0.769229 5.27971 0.489513 5.10489 0.559443 4.72028C1.25874 1.08392 4.51049 0 7.44756 0C8.95105 0 10.9091 0.384613 12.0979 1.53846C13.6014 2.93706 13.4615 4.82518 13.4615 6.85315V11.6433C13.4615 13.0769 14.0559 13.7063 14.6154 14.5105C14.8252 14.7902 14.8601 15.1399 14.6154 15.3147C13.9511 15.8392 12.8322 16.8182 12.2028 17.3427Z" fill="#888888"/>
</svg>
