<svg width="22" height="22" viewBox="0 0 22 22" fill="none" xmlns="http://www.w3.org/2000/svg">
<path d="M0 2.0625V17.875C0 18.2397 0.1449 18.5894 0.4027 18.8473C0.6606 19.1051 1.0103 19.25 1.375 19.25V2.0625C1.375 1.8802 1.4474 1.7053 1.5764 1.5764C1.7053 1.4474 1.8802 1.375 2.0625 1.375H19.25C19.25 1.0103 19.1051 0.6606 18.8473 0.4027C18.5894 0.1449 18.2397 0 17.875 0H2.0625C1.5155 0 0.9909 0.2173 0.6041 0.6041C0.2173 0.9909 0 1.5155 0 2.0625Z" fill="url(#paint0_linear_81_1988)"/>
<path d="M4.8125 2.75C4.2655 2.75 3.7409 2.9673 3.3541 3.3541C2.9673 3.7409 2.75 4.2655 2.75 4.8125V19.9375C2.75 20.4845 2.9673 21.0091 3.3541 21.3959C3.7409 21.7827 4.2655 22 4.8125 22H13.1808C13.7276 21.9995 14.2518 21.7819 14.6383 21.395L21.3964 14.6383C21.7828 14.2516 21.9999 13.7274 22 13.1808V4.8125C22 4.2655 21.7827 3.7409 21.3959 3.3541C21.0091 2.9673 20.4845 2.75 19.9375 2.75H4.8125ZM13.0625 14.4375C13.0625 14.0728 13.2074 13.7231 13.4652 13.4652C13.7231 13.2074 14.0728 13.0625 14.4375 13.0625H20.482C20.5501 13.0624 20.6167 13.0825 20.6733 13.1202C20.7299 13.158 20.7741 13.2117 20.8002 13.2746C20.8262 13.3375 20.833 13.4067 20.8197 13.4735C20.8064 13.5402 20.7736 13.6015 20.7254 13.6496L13.6496 20.7254C13.6015 20.7736 13.5402 20.8064 13.4735 20.8197C13.4067 20.833 13.3375 20.8262 13.2746 20.8002C13.2117 20.7741 13.158 20.7299 13.1202 20.6733C13.0825 20.6167 13.0624 20.5501 13.0625 20.482V14.4375Z" fill="url(#paint1_linear_81_1988)"/>
<defs>
<linearGradient id="paint0_linear_81_1988" x1="0" y1="12.7927" x2="19.25" y2="12.7927" gradientUnits="userSpaceOnUse">
<stop stop-color="#6A48F2"/>
<stop offset="0.6875" stop-color="#CD99FF"/>
</linearGradient>
<linearGradient id="paint1_linear_81_1988" x1="2.75" y1="15.5427" x2="22" y2="15.5427" gradientUnits="userSpaceOnUse">
<stop stop-color="#6A48F2"/>
<stop offset="0.6875" stop-color="#CD99FF"/>
</linearGradient>
</defs>
</svg>
