<svg width="28" height="20" viewBox="0 0 28 20" fill="none" xmlns="http://www.w3.org/2000/svg">
<path d="M15.6862 15.7837L14 20L12.3138 15.7837C11.878 14.6946 11.0608 13.7028 9.9395 12.9018C8.81817 12.1009 7.42962 11.5172 5.90489 11.2059L0 10L5.90281 8.79556C7.42755 8.48426 8.8161 7.90059 9.93743 7.09964C11.0588 6.29869 11.8759 5.30687 12.3117 4.21778L14 0L15.6862 4.2163C16.122 5.30539 16.9392 6.29721 18.0605 7.09816C19.1818 7.89911 20.5704 8.48277 22.0951 8.79407L28 10L22.0972 11.2044C20.5725 11.5157 19.1839 12.0994 18.0626 12.9004C16.9412 13.7013 16.1241 14.6931 15.6883 15.7822L15.6862 15.7837Z" fill="#888888"/>
</svg>
