<svg width="23" height="21" viewBox="0 0 23 21" fill="none" xmlns="http://www.w3.org/2000/svg">
<path d="M18.7139 0H3.7428C1.6843 0 0 1.6842 0 3.7427V13.0996C0 15.1582 1.6843 16.8424 3.7428 16.8424V19.6495C3.7428 20.4916 4.7721 20.8659 5.3335 20.3044L8.7955 16.8424H18.7139C20.7724 16.8424 22.4566 15.1582 22.4566 13.0996V3.7427C22.4566 1.6842 20.7724 0 18.7139 0ZM13.0997 11.2283H7.4856C6.9242 11.2283 6.5499 10.854 6.5499 10.2926C6.5499 9.7311 6.9242 9.3569 7.4856 9.3569H13.0997C13.6611 9.3569 14.0354 9.7311 14.0354 10.2926C14.0354 10.854 13.6611 11.2283 13.0997 11.2283ZM14.9711 7.4855H7.4856C6.9242 7.4855 6.5499 7.1112 6.5499 6.5498C6.5499 5.9884 6.9242 5.6141 7.4856 5.6141H14.9711C15.5325 5.6141 15.9068 5.9884 15.9068 6.5498C15.9068 7.1112 15.5325 7.4855 14.9711 7.4855Z" fill="url(#paint0_linear_81_1961)"/>
<defs>
<linearGradient id="paint0_linear_81_1961" x1="0" y1="13.6709" x2="22.4566" y2="13.6709" gradientUnits="userSpaceOnUse">
<stop stop-color="#6A48F2"/>
<stop offset="0.6875" stop-color="#CD99FF"/>
</linearGradient>
</defs>
</svg>
