<svg width="151" height="30" viewBox="0 0 151 30" fill="none" xmlns="http://www.w3.org/2000/svg">
<path d="M96.3428 24.2328L90.5945 16.4312L84.8526 24.2328H82.487L89.3976 14.8068L83.0863 6.23877H85.4518L90.5945 13.2266L95.7373 6.23877H98.1012L91.7947 14.8052L98.7068 24.2328H96.3428ZM51.5502 24.2296L44.6318 14.8052L50.9431 6.23877H48.5775L43.4332 13.2282L38.2937 6.23877H35.9344L42.2426 14.8052L35.3257 24.2296H37.6944L43.4364 16.4312L49.1831 24.2296H51.5502Z" fill="#888888"/>
<path d="M64.7027 15.4865C64.3463 15.1827 63.9493 14.9301 63.5231 14.7358C64.177 14.3884 64.724 13.8693 65.1052 13.2344C65.4864 12.5996 65.6874 11.8728 65.6868 11.1323C65.6868 9.98107 65.2626 6.23718 59.8376 6.23718H52.5311V13.9946H50.0978C49.7824 14.4062 49.0648 15.395 48.792 15.8003H52.5311V24.2296L59.8391 24.2312C63.7975 24.2312 66.2561 22.222 66.2561 18.9781C66.2561 17.5619 65.7215 16.3586 64.7027 15.4865ZM54.5513 8.11544H59.8391C61.2695 8.11544 63.6666 8.47185 63.6666 10.9746C63.6666 12.8671 62.2709 13.9946 59.8391 13.9946H54.5513V8.11544ZM59.8376 22.3545H54.5497V15.8051H59.8376C61.842 15.8051 64.2406 16.3586 64.2406 18.9386C64.2406 21.9098 61.4824 22.3545 59.8376 22.3545ZM75.7609 5.824C70.7065 5.824 67.1739 9.68932 67.1739 15.2247C67.1739 20.768 70.7065 24.6302 75.7609 24.6302C80.8106 24.6302 84.3337 20.768 84.3337 15.2247C84.3337 9.68932 80.8106 5.824 75.7609 5.824ZM75.7609 22.7267C71.9098 22.7267 69.2115 19.6404 69.2115 15.2247C69.2115 10.809 71.9098 7.72433 75.7609 7.72433C79.6057 7.72433 82.2883 10.809 82.2883 15.2247C82.2883 19.6404 79.6057 22.7267 75.7609 22.7267ZM4.47565 4.3132L4.46145 4.32581C3.04626 5.71914 1.92286 7.38204 1.15685 9.21435C0.39084 11.0467 -0.00242758 13.0132 1.39213e-05 14.9992C-0.00446725 18.2823 1.07301 21.4754 3.06578 24.0845C3.08628 24.1098 3.11782 24.1239 3.1462 24.1098C3.17301 24.094 3.17459 24.0609 3.16355 24.0325C2.0202 20.4968 7.8647 11.9271 10.8847 8.33464C10.8942 8.32203 10.9068 8.30783 10.9068 8.29049C10.9068 8.26999 10.8926 8.25421 10.8784 8.2416C5.79878 3.18562 4.44253 4.34158 4.46145 4.32581M25.5228 4.3132L25.537 4.32581C26.952 5.71917 28.0752 7.38211 28.841 9.21443C29.6067 11.0468 29.9997 13.0133 29.9968 14.9992C30.0013 18.2823 28.9239 21.4754 26.9311 24.0845C26.9122 24.1098 26.879 24.1239 26.8507 24.1098C26.8254 24.094 26.8238 24.0609 26.8333 24.0325C27.9767 20.4968 22.1369 11.9208 19.1184 8.32676C19.1074 8.31414 19.0964 8.29995 19.0964 8.28418C19.0964 8.2621 19.109 8.24633 19.1248 8.23371C24.206 3.17773 25.5528 4.34158 25.5354 4.32581M14.9992 0C18.0256 0 20.5157 0.829522 22.8119 2.19524C22.8403 2.20943 22.8481 2.24097 22.8371 2.26936C22.8261 2.29617 22.7945 2.30247 22.7646 2.29459C19.8612 1.66693 15.4471 4.176 15.0308 4.42674C15.0213 4.43305 15.0118 4.43936 14.9992 4.43936C14.985 4.43936 14.9756 4.43305 14.9661 4.42674C13.859 3.7912 9.77923 1.65274 7.21023 2.31036C7.18184 2.31667 7.1503 2.31194 7.13769 2.28355C7.13231 2.27022 7.13189 2.25541 7.13652 2.2418C7.14116 2.22819 7.15052 2.21671 7.16292 2.20943C9.45909 0.829522 11.9808 0 14.9992 0ZM14.9992 12.0296C15.0166 12.0296 15.0355 12.0438 15.0465 12.0533C19.5348 15.466 27.2165 23.9032 24.8715 26.2892L24.8746 26.2861L24.8731 26.2892H24.8715C22.1414 28.6855 18.6301 30.0047 14.9976 30C11.3647 30.0044 7.85463 28.6852 5.12381 26.2892C2.78349 23.9032 10.4637 15.466 14.9472 12.0533C14.9598 12.0438 14.9803 12.0296 14.9992 12.0296ZM133.624 6.23876V21.0046L122.747 6.22772L120.964 6.22457V24.2028H122.966V9.76344L133.621 24.2138L135.628 24.217V6.23876H133.624ZM110.566 5.82085C105.512 5.82085 101.978 9.68774 101.978 15.2216C101.978 20.7649 105.512 24.6333 110.566 24.6333C115.616 24.6333 119.139 20.7649 119.139 15.2216C119.139 9.68932 115.616 5.82085 110.566 5.82085ZM110.566 22.7267C106.715 22.7267 104.017 19.6404 104.017 15.2216C104.017 10.8074 106.715 7.72118 110.566 7.72118C114.411 7.72118 117.093 10.8074 117.093 15.2216C117.093 19.6404 114.411 22.7267 110.566 22.7267ZM139.891 22.457V15.8051H149.79V14.0451H139.891V7.98454H150.462V6.22614H137.877V24.217H150.587V22.457H139.891Z" fill="#888888"/>
</svg>
