<svg width="19" height="20" viewBox="0 0 19 20" fill="none" xmlns="http://www.w3.org/2000/svg">
<path d="M18.75 15.8333C18.75 15.6123 18.6842 15.4004 18.5669 15.2441C18.4497 15.0878 18.2908 15 18.125 15H15.625C15.4592 15 15.3003 15.0878 15.1831 15.2441C15.0658 15.4004 15 15.6123 15 15.8333V19.1667C15 19.3877 15.0658 19.5996 15.1831 19.7559C15.3003 19.9122 15.4592 20 15.625 20H18.125C18.2908 20 18.4497 19.9122 18.5669 19.7559C18.6842 19.5996 18.75 19.3877 18.75 19.1667V15.8333ZM13.75 10.8333C13.75 10.6123 13.6842 10.4004 13.5669 10.2441C13.4497 10.0878 13.2908 10 13.125 10H10.625C10.4592 10 10.3003 10.0878 10.1831 10.2441C10.0658 10.4004 10 10.6123 10 10.8333V19.1667C10 19.3877 10.0658 19.5996 10.1831 19.7559C10.3003 19.9122 10.4592 20 10.625 20H13.125C13.2908 20 13.4497 19.9122 13.5669 19.7559C13.6842 19.5996 13.75 19.3877 13.75 19.1667V10.8333ZM8.75 5.8333C8.75 5.6123 8.6842 5.4004 8.5669 5.2441C8.4497 5.0878 8.2908 5 8.125 5H5.625C5.4592 5 5.3003 5.0878 5.1831 5.2441C5.0658 5.4004 5 5.6123 5 5.8333V19.1667C5 19.3877 5.0658 19.5996 5.1831 19.7559C5.3003 19.9122 5.4592 20 5.625 20H8.125C8.2908 20 8.4497 19.9122 8.5669 19.7559C8.6842 19.5996 8.75 19.3877 8.75 19.1667V5.8333ZM3.75 0.8333C3.75 0.6123 3.6842 0.4004 3.5669 0.2441C3.4497 0.0877996 3.2908 0 3.125 0H0.625C0.4592 0 0.3003 0.0877996 0.1831 0.2441C0.0657998 0.4004 0 0.6123 0 0.8333V19.1667C0 19.3877 0.0657998 19.5996 0.1831 19.7559C0.3003 19.9122 0.4592 20 0.625 20H3.125C3.2908 20 3.4497 19.9122 3.5669 19.7559C3.6842 19.5996 3.75 19.3877 3.75 19.1667V0.8333Z" fill="url(#paint0_linear_81_1974)"/>
<defs>
<linearGradient id="paint0_linear_81_1974" x1="18.75" y1="13.2911" x2="0" y2="13.2911" gradientUnits="userSpaceOnUse">
<stop stop-color="#6A48F2"/>
<stop offset="0.6875" stop-color="#CD99FF"/>
</linearGradient>
</defs>
</svg>
