<svg width="28" height="28" viewBox="0 0 28 28" fill="none" xmlns="http://www.w3.org/2000/svg">
<path fill-rule="evenodd" clip-rule="evenodd" d="M16.2615 0.884329C14.8646 -0.294777 12.821 -0.294776 11.424 0.884329L10.1518 1.95816C9.558 2.45931 8.82325 2.76368 8.04902 2.82915L6.3901 2.96944C4.56854 3.12349 3.12349 4.56854 2.96944 6.3901L2.82915 8.04902C2.76368 8.82325 2.45931 9.558 1.95816 10.1518L0.884329 11.424C-0.294777 12.821 -0.294776 14.8646 0.884329 16.2615L1.95816 17.5338C2.45931 18.1275 2.76368 18.8623 2.82915 19.6365L2.96944 21.2955C3.12349 23.1171 4.56854 24.5621 6.3901 24.7161L8.04902 24.8563C8.82325 24.922 9.558 25.2263 10.1518 25.7275L11.424 26.8013C12.821 27.9803 14.8646 27.9803 16.2615 26.8013L17.5338 25.7275C18.1275 25.2263 18.8623 24.922 19.6365 24.8563L21.2955 24.7161C23.1171 24.5621 24.5621 23.1171 24.7161 21.2955L24.8563 19.6365C24.922 18.8623 25.2263 18.1275 25.7275 17.5338L26.8013 16.2615C27.9803 14.8646 27.9803 12.821 26.8013 11.424L25.7275 10.1518C25.2263 9.558 24.922 8.82325 24.8563 8.04902L24.7161 6.3901C24.5621 4.56854 23.1171 3.12349 21.2955 2.96944L19.6365 2.82915C18.8623 2.76368 18.1275 2.45931 17.5338 1.95816L16.2615 0.884329ZM20.6618 11.2861C21.3208 10.6271 21.3208 9.55862 20.6618 8.89962C20.0029 8.24059 18.9343 8.24059 18.2753 8.89962L11.9686 15.2064L9.41183 12.6496C8.75282 11.9906 7.68435 11.9906 7.02535 12.6496C6.36632 13.3086 6.36632 14.3771 7.02535 15.0361L10.7753 18.786C11.4344 19.4451 12.5028 19.4451 13.1618 18.786L20.6618 11.2861Z" fill="#CD99FF"/>
</svg>
