<svg width="41" height="17" viewBox="0 0 41 17" fill="none" xmlns="http://www.w3.org/2000/svg">
<path d="M1.68595 0.000246291C1.23888 0.000246291 0.81011 0.177847 0.493978 0.493978C0.177847 0.81011 0.000246291 1.23888 0.000246291 1.68595V15.1716C-0.0334678 17.4507 3.40537 17.4507 3.37166 15.1716V10.1145H5.05736C7.33644 10.1482 7.33644 6.70936 5.05736 6.74307H3.37166V3.37166H5.05736C7.33644 3.40537 7.33644 -0.0334678 5.05736 0.000246291H1.68595ZM11.8002 0.000246291C11.3531 0.000246291 10.9243 0.177847 10.6082 0.493978C10.2921 0.81011 10.1145 1.23888 10.1145 1.68595V15.1716C10.0808 17.4507 13.5196 17.4507 13.4859 15.1716V10.1145H13.7219L17.0798 16.0077C18.1553 18.098 21.2637 16.3212 20.0062 14.3355L17.2956 9.57506C17.808 9.30534 18.28 8.9682 18.6779 8.567C19.578 7.67021 20.2287 6.46324 20.2287 5.05736C20.2287 3.65149 19.578 2.44452 18.6812 1.54772C17.7844 0.650929 16.5775 0.000246291 15.1716 0.000246291H11.8002ZM25.2858 0.000246291C24.8388 0.000246291 24.41 0.177847 24.0939 0.493978C23.7777 0.81011 23.6001 1.23888 23.6001 1.68595V15.1716C23.6001 15.6187 23.7777 16.0474 24.0939 16.3636C24.41 16.6797 24.8388 16.8573 25.2858 16.8573H28.6572C30.9363 16.891 30.9363 13.4522 28.6572 13.4859H26.9715V10.1145H28.6572C30.9363 10.1482 30.9363 6.70936 28.6572 6.74307H26.9715V3.37166H28.6572C30.9363 3.40537 30.9363 -0.0334678 28.6572 0.000246291H25.2858ZM35.4001 0.000246291C34.953 0.000246291 34.5242 0.177847 34.2081 0.493978C33.892 0.81011 33.7144 1.23888 33.7144 1.68595V15.1716C33.7144 15.6187 33.892 16.0474 34.2081 16.3636C34.5242 16.6797 34.953 16.8573 35.4001 16.8573H38.7715C41.0506 16.891 41.0506 13.4522 38.7715 13.4859H37.0858V10.1145H38.7715C41.0506 10.1482 41.0506 6.70936 38.7715 6.74307H37.0858V3.37166H38.7715C41.0506 3.40537 41.0506 -0.0334678 38.7715 0.000246291H35.4001ZM13.4859 3.37166H15.1716C16.1594 3.37166 16.8573 4.09651 16.8573 5.05736C16.8573 6.01822 16.183 6.74307 15.1716 6.74307H13.4859V3.37166Z" fill="white"/>
</svg>
