<svg width="114" height="30" viewBox="0 0 114 30" fill="none" xmlns="http://www.w3.org/2000/svg">
<path d="M83.4502 2.14904C83.4502 0.962779 84.437 0 85.6535 0H111.058C112.275 0 113.261 0.962779 113.261 2.14904V27.8514C113.261 29.038 112.275 30 111.058 30H85.6535C84.437 30 83.4502 29.038 83.4502 27.8517V2.14904Z" fill="#888888"/>
<path d="M0 25.1295H12.441V21.0446H4.50306V5.46193H0V25.1295ZM18.7397 25.1295V11.5829H14.2371V25.1295H18.7397ZM16.4888 9.73364C18.0587 9.73364 19.036 8.69335 19.036 7.3926C19.0069 6.06352 18.0587 5.05273 16.5187 5.05273C14.9783 5.05273 13.9711 6.06391 13.9711 7.3926C13.9711 8.69335 14.9484 9.73364 16.4593 9.73364H16.4888ZM20.8301 25.1295H25.3328V17.5641C25.3328 17.1593 25.3619 16.7544 25.4811 16.466C25.8061 15.6571 26.547 14.819 27.7911 14.819C29.4208 14.819 30.0727 16.0615 30.0727 17.8817V25.1291H34.5746V17.3619C34.5746 13.2008 32.3532 11.2646 29.3905 11.2646C26.9617 11.2646 25.895 12.6224 25.3025 13.5474H25.3328V11.5829H20.8301C20.8895 12.8541 20.8301 25.1295 20.8301 25.1295ZM40.9269 5.46193H36.4242V25.1295H40.9269V20.7373L42.0521 19.3205L45.5775 25.1295H51.1165L45.1927 16.7202L50.376 10.9994H44.9558C44.9558 10.9994 41.253 16.1174 40.9269 16.7249V5.46193Z" fill="#888888"/>
<path d="M63.1572 19.4787C63.2166 19.1309 63.3055 18.4636 63.3055 17.709C63.3055 14.2072 61.5279 10.652 56.8478 10.652C51.8415 10.652 49.5308 14.6113 49.5308 18.2023C49.5308 22.6436 52.3451 25.4171 57.2621 25.4171C59.2176 25.4171 61.0239 25.1291 62.5056 24.522L61.9131 21.5483C60.6981 21.9512 59.454 22.153 57.914 22.153C55.811 22.153 53.9748 21.2894 53.8265 19.4496L63.1572 19.4779V19.4787ZM53.797 16.4326C53.9154 15.2766 54.6862 13.571 56.6113 13.571C58.6549 13.571 59.1294 15.3919 59.1294 16.4326H53.797ZM74.4194 5.46194V12.2703H74.36C73.708 11.3173 72.3455 10.6815 70.5395 10.6815C67.0732 10.6815 64.0224 13.4553 64.0515 18.1941C64.0515 22.5866 66.8068 25.4474 70.2425 25.4474C72.109 25.4474 73.8858 24.6377 74.775 23.0772H74.8636L75.0418 25.1295H79.0405C78.9814 24.1757 78.9216 22.5288 78.9216 20.9105V5.46155H74.419L74.4194 5.46194ZM74.4194 18.859C74.4194 19.2053 74.3899 19.5527 74.33 19.8407C74.0645 21.084 72.9978 21.95 71.6943 21.95C69.8286 21.95 68.6136 20.4478 68.6136 18.0784C68.6136 15.8538 69.6511 14.062 71.7242 14.062C73.1162 14.062 74.0936 15.0154 74.3603 16.1997C74.4194 16.4605 74.4194 16.7497 74.4194 17.0094V18.859Z" fill="#888888"/>
<path d="M92.487 25.113V11.5664H87.9843V25.113H92.487ZM90.2365 9.71716C91.8063 9.71716 92.7837 8.67687 92.7837 7.37691C92.7541 6.04743 91.8063 5.03625 90.2663 5.03625C88.7252 5.03625 87.7188 6.04743 87.7188 7.37691C87.7188 8.67687 88.6957 9.71716 90.2069 9.71716H90.2361H90.2365ZM94.9791 25.113H99.4814V17.5488C99.4814 17.1444 99.5109 16.7391 99.6297 16.4503C99.9551 15.641 100.696 14.8033 101.94 14.8033C103.569 14.8033 104.221 16.0455 104.221 17.8668V25.113H108.723V17.3458C108.723 13.1851 106.502 11.2489 103.54 11.2489C101.111 11.2489 100.044 12.6063 99.4519 13.5309H99.4818V11.5668H94.9795C95.0381 12.8376 94.9791 25.113 94.9791 25.113Z" fill="#0E0A0F"/>
</svg>
