<svg width="141" height="30" viewBox="0 0 141 30" fill="none" xmlns="http://www.w3.org/2000/svg">
<path d="M140.521 13.5713V11.1001H137.453V7.25815L137.349 7.28996L134.467 8.1719L134.41 8.18916V11.1002H129.86V9.4785C129.86 8.72338 130.029 8.14553 130.362 7.76015C130.692 7.3794 131.165 7.18583 131.768 7.18583C132.201 7.18583 132.65 7.28792 133.102 7.48924L133.215 7.5398V4.93721L133.162 4.91763C132.74 4.7662 132.167 4.68994 131.457 4.68994C130.562 4.68994 129.749 4.88474 129.039 5.27079C128.33 5.65739 127.771 6.20928 127.38 6.91097C126.991 7.61185 126.793 8.42134 126.793 9.31714V11.1001H124.656V13.5713H126.793V23.9824H129.86V13.5713H134.41V20.1874C134.41 22.9122 135.695 24.293 138.23 24.293C138.646 24.293 139.085 24.2442 139.532 24.1487C139.988 24.0505 140.298 23.9525 140.481 23.8478L140.522 23.8239V21.3298L140.397 21.4123C140.23 21.5232 140.023 21.6139 139.78 21.6813C139.536 21.75 139.332 21.7844 139.174 21.7844C138.58 21.7844 138.141 21.6244 137.868 21.3086C137.593 20.99 137.453 20.4328 137.453 19.6533V13.5713H140.521ZM117.805 21.7848C116.692 21.7848 115.814 21.4156 115.195 20.6883C114.573 19.9574 114.258 18.9153 114.258 17.5913C114.258 16.2253 114.573 15.1562 115.196 14.4124C115.815 13.6734 116.684 13.2984 117.78 13.2984C118.844 13.2984 119.691 13.6566 120.297 14.3636C120.907 15.0742 121.216 16.1348 121.216 17.5167C121.216 18.9156 120.925 19.9902 120.352 20.709C119.782 21.4224 118.925 21.7848 117.805 21.7848ZM117.942 10.7897C115.817 10.7897 114.13 11.4122 112.927 12.6398C111.725 13.8675 111.115 15.5666 111.115 17.6901C111.115 19.7071 111.71 21.3295 112.884 22.5115C114.058 23.6938 115.655 24.2927 117.631 24.2927C119.69 24.2927 121.344 23.6616 122.546 22.417C123.749 21.1737 124.358 19.4907 124.358 17.4168C124.358 15.3683 123.786 13.7338 122.658 12.5597C121.53 11.3851 119.943 10.7897 117.942 10.7897ZM106.17 10.7897C104.725 10.7897 103.529 11.1593 102.616 11.8881C101.698 12.6212 101.232 13.5826 101.232 14.7461C101.232 15.3509 101.332 15.8881 101.53 16.3437C101.729 16.8009 102.037 17.2034 102.447 17.5412C102.853 17.8762 103.48 18.2272 104.311 18.5843C105.01 18.8718 105.531 19.115 105.862 19.3067C106.186 19.4945 106.415 19.6834 106.545 19.8673C106.671 20.0472 106.735 20.2936 106.735 20.5975C106.735 21.463 106.087 21.8841 104.753 21.8841C104.258 21.8841 103.694 21.7808 103.076 21.5772C102.462 21.3766 101.883 21.0829 101.359 20.7064L101.231 20.615V23.5685L101.278 23.5902C101.712 23.7906 102.259 23.9596 102.904 24.0925C103.548 24.2256 104.133 24.2933 104.641 24.2933C106.209 24.2933 107.472 23.9219 108.393 23.1888C109.32 22.4507 109.79 21.4665 109.79 20.2628C109.79 19.3945 109.537 18.6498 109.039 18.0493C108.544 17.4536 107.684 16.9068 106.485 16.4234C105.53 16.04 104.918 15.7218 104.666 15.4775C104.423 15.2416 104.299 14.9078 104.299 14.4852C104.299 14.1106 104.452 13.8104 104.765 13.5674C105.08 13.3231 105.519 13.1989 106.07 13.1989C106.581 13.1989 107.104 13.2796 107.624 13.4379C108.144 13.5961 108.6 13.808 108.981 14.0672L109.107 14.1529V11.3513L109.059 11.3306C108.707 11.1798 108.244 11.0508 107.681 10.9462C107.12 10.8422 106.612 10.7897 106.17 10.7897ZM93.2344 21.7848C92.1213 21.7848 91.2431 21.4156 90.6246 20.6883C90.002 19.9574 89.6872 18.9156 89.6872 17.5913C89.6872 16.2253 90.0024 15.1562 90.6253 14.4124C91.2438 13.6734 92.1131 13.2984 93.2098 13.2984C94.2731 13.2984 95.1198 13.6566 95.7265 14.3636C96.3362 15.0742 96.6454 16.1348 96.6454 17.5167C96.6454 18.9156 96.3544 19.9902 95.7807 20.709C95.211 21.4224 94.3548 21.7848 93.2344 21.7848ZM93.3712 10.7897C91.2464 10.7897 89.559 11.4122 88.3567 12.6398C87.1545 13.8675 86.5445 15.5666 86.5445 17.6901C86.5445 19.708 87.1399 21.3295 88.3136 22.5115C89.4873 23.6938 91.0843 24.2927 93.0604 24.2927C95.1193 24.2927 96.7733 23.6616 97.9758 22.417C99.1779 21.1737 99.7873 19.4907 99.7873 17.4168C99.7873 15.3683 99.2155 13.7338 98.0874 12.5597C96.9587 11.3851 95.3718 10.7897 93.3712 10.7897ZM81.888 13.331V11.1001H78.8577V23.9821H81.888V17.3925C81.888 16.2719 82.1421 15.3514 82.6434 14.6561C83.1383 13.9691 83.7979 13.621 84.6031 13.621C84.8761 13.621 85.1825 13.666 85.5143 13.755C85.8427 13.8435 86.0806 13.9396 86.2209 14.0407L86.3483 14.133V11.078L86.2992 11.057C86.017 10.9371 85.6177 10.8766 85.1126 10.8766C84.3511 10.8766 83.6697 11.1213 83.086 11.603C82.5736 12.0264 82.2034 12.607 81.9202 13.331H81.888ZM73.4311 10.7897C72.0409 10.7897 70.8009 11.0878 69.7462 11.6755C68.6893 12.2645 67.872 13.1054 67.3158 14.1746C66.7622 15.2413 66.4811 16.4873 66.4811 17.8768C66.4811 19.0939 66.7536 20.2109 67.2923 21.1953C67.8313 22.1814 68.5942 22.9528 69.5599 23.4879C70.5242 24.0222 71.6387 24.2932 72.8727 24.2932C74.3128 24.2932 75.5423 24.0052 76.5281 23.4374L76.5679 23.4146V20.6384L76.4406 20.7314C75.994 21.0567 75.495 21.3163 74.9581 21.5034C74.4225 21.6903 73.9342 21.7848 73.506 21.7848C72.317 21.7848 71.3625 21.4127 70.6696 20.6792C69.9753 19.9448 69.6232 18.9134 69.6232 17.6157C69.6232 16.3097 69.9903 15.2519 70.7139 14.4714C71.4353 13.6931 72.3916 13.2984 73.556 13.2984C74.552 13.2984 75.5226 13.6356 76.4408 14.3017L76.5679 14.394V11.4688L76.5269 11.4457C76.1813 11.2523 75.7101 11.0926 75.125 10.9715C74.5424 10.8506 73.9725 10.7897 73.4311 10.7897ZM64.3941 11.1002H61.3638V23.9821H64.3941V11.1002ZM62.91 5.61239C62.4112 5.61239 61.9762 5.78217 61.6188 6.11861C61.26 6.456 61.078 6.88079 61.078 7.38212C61.078 7.87556 61.2578 8.29261 61.6133 8.62102C61.9664 8.94849 62.4028 9.11447 62.9101 9.11447C63.4173 9.11447 63.8552 8.94849 64.2126 8.62157C64.5723 8.29261 64.7547 7.8757 64.7547 7.38212C64.7547 6.89833 64.5772 6.47788 64.2274 6.1322C63.8779 5.7872 63.4345 5.61239 62.91 5.61239ZM55.3493 10.1497V23.9821H58.4418V6.00674H54.1616L48.7213 19.3583L43.4417 6.00674H38.9873V23.982H41.8934V10.1484H41.9932L47.5683 23.9821H49.7614L55.2495 10.1497H55.3493Z" fill="#888888"/>
<path d="M14.2551 14.2552H0V0H14.2551V14.2552Z" fill="#888888"/>
<path d="M29.9946 14.2552H15.7397V0H29.9946V14.2552Z" fill="#888888"/>
<path d="M14.2547 30H0V15.745H14.2547V30Z" fill="#888888"/>
<path d="M29.9946 30H15.7397V15.745H29.9946V30Z" fill="#888888"/>
</svg>
