<svg width="119" height="30" viewBox="0 0 119 30" fill="none" xmlns="http://www.w3.org/2000/svg">
<path d="M21.646 2.2621C20.2569 0.678785 17.7458 -1.90735e-05 14.5336 -1.90735e-05H5.21043C4.89244 -0.000188828 4.58483 0.113144 4.34295 0.319576C4.10107 0.526011 3.94081 0.811991 3.891 1.12606L0.0107203 25.7479C-0.00727204 25.8622 -0.000288594 25.9789 0.0311899 26.0902C0.0626684 26.2014 0.117894 26.3046 0.19306 26.3924C0.268227 26.4803 0.361548 26.5508 0.466595 26.5991C0.571642 26.6475 0.685918 26.6725 0.801548 26.6724H6.55725L8.00281 17.5036L7.958 17.7907C8.00685 17.4773 8.16604 17.1916 8.40688 16.9851C8.64773 16.7786 8.95439 16.665 9.27162 16.6646H12.0067C17.3799 16.6646 21.5871 14.4822 22.8161 8.16883C22.8526 7.98211 22.8841 7.80038 22.9115 7.6228C23.2767 5.28932 22.909 3.70102 21.6469 2.26293" fill="#888888"/>
<path d="M92.1086 13.9785C91.7567 16.2888 89.9925 16.2888 88.2864 16.2888H87.3155L87.9968 11.9753C88.0383 11.7147 88.2623 11.5231 88.5262 11.5231H88.9718C90.1336 11.5231 91.2306 11.5231 91.7966 12.1844C92.1343 12.5803 92.2364 13.1678 92.1086 13.9785ZM91.3659 7.95064H84.9297C84.7166 7.95075 84.5104 8.02683 84.3483 8.16523C84.1862 8.30363 84.0787 8.49528 84.0451 8.70579L81.4444 25.2086C81.4325 25.2851 81.4372 25.3633 81.4583 25.4378C81.4794 25.5123 81.5163 25.5814 81.5666 25.6403C81.6169 25.6992 81.6794 25.7465 81.7496 25.779C81.8199 25.8114 81.8964 25.8283 81.9739 25.8285H85.2766C85.5845 25.8285 85.8467 25.6044 85.8948 25.3007L86.6334 20.6205C86.7014 20.1865 87.0765 19.8653 87.5163 19.8653H89.5527C93.7931 19.8653 96.2395 17.8148 96.8784 13.7478C97.1664 11.9703 96.8901 10.5729 96.0577 9.59453C95.1424 8.51908 93.5201 7.94981 91.3667 7.94981" fill="#888888"/>
<path d="M46.2025 13.9785C45.8506 16.2888 44.0864 16.2888 42.3794 16.2888H41.4085L42.0898 11.9753C42.1313 11.7147 42.3554 11.523 42.6193 11.523H43.0649C44.2266 11.523 45.3237 11.523 45.8896 12.1844C46.2282 12.5803 46.3303 13.1678 46.2025 13.9785ZM45.4598 7.95063H39.0236C38.5838 7.95063 38.2087 8.27095 38.1398 8.70578L35.5383 25.2086C35.5262 25.2851 35.5308 25.3634 35.5519 25.4379C35.5729 25.5125 35.6099 25.5816 35.6602 25.6406C35.7105 25.6995 35.773 25.7468 35.8434 25.7792C35.9137 25.8117 35.9903 25.8285 36.0678 25.8285H39.1414C39.5813 25.8285 39.9555 25.5082 40.0244 25.0733L40.7273 20.6213C40.7953 20.1865 41.1704 19.8662 41.6102 19.8662H43.6466C47.887 19.8662 50.3334 17.8148 50.9723 13.7478C51.2603 11.9703 50.9839 10.5729 50.1516 9.59452C49.2363 8.51906 47.614 7.9498 45.4606 7.9498M60.4025 19.9035C60.1038 21.6644 58.7072 22.8469 56.9239 22.8469C56.0301 22.8469 55.314 22.559 54.8543 22.0146C54.3979 21.4752 54.2269 20.7059 54.3713 19.8504C54.6485 18.1044 56.0691 16.8846 57.8251 16.8846C58.7005 16.8846 59.41 17.175 59.8797 17.7244C60.3519 18.2779 60.5378 19.0513 60.4025 19.9035ZM64.6977 13.9038H61.6157C61.4876 13.9037 61.3636 13.9493 61.2662 14.0326C61.1689 14.1158 61.1044 14.2312 61.0846 14.3577L60.9502 15.2191L60.7344 14.9071C60.0673 13.9387 58.5794 13.6142 57.094 13.6142C53.6892 13.6142 50.7806 16.195 50.2147 19.813C49.9201 21.6196 50.3383 23.3448 51.3623 24.5489C52.3025 25.655 53.6444 26.1156 55.2435 26.1156C57.9885 26.1156 59.5104 24.353 59.5104 24.353L59.3727 25.2094C59.3606 25.286 59.3652 25.3643 59.3863 25.439C59.4074 25.5136 59.4444 25.5828 59.4948 25.6417C59.5452 25.7006 59.6078 25.7479 59.6783 25.7803C59.7488 25.8127 59.8254 25.8294 59.903 25.8293H62.6779C63.1177 25.8293 63.4928 25.5098 63.5617 25.0742L65.228 14.5245C65.24 14.4479 65.2352 14.3696 65.214 14.2949C65.1928 14.2203 65.1557 14.1512 65.1052 14.0922C65.0548 14.0333 64.9921 13.9861 64.9216 13.9537C64.8511 13.9213 64.7745 13.9046 64.6969 13.9047" fill="#888888"/>
<path d="M106.309 19.9035C106.01 21.6644 104.613 22.8469 102.83 22.8469C101.936 22.8469 101.22 22.559 100.761 22.0146C100.304 21.4752 100.133 20.7059 100.278 19.8504C100.555 18.1044 101.975 16.8846 103.731 16.8846C104.607 16.8846 105.316 17.175 105.786 17.7244C106.258 18.2779 106.444 19.0513 106.309 19.9035ZM110.604 13.9038H107.522C107.394 13.9037 107.27 13.9493 107.173 14.0326C107.075 14.1158 107.011 14.2312 106.991 14.3577L106.856 15.2191L106.641 14.9071C105.974 13.9387 104.486 13.6142 103 13.6142C99.5963 13.6142 96.6878 16.195 96.121 19.813C95.8264 21.6196 96.2455 23.3448 97.2695 24.5489C98.2097 25.655 99.5515 26.1156 101.151 26.1156C103.896 26.1156 105.418 24.353 105.418 24.353L105.281 25.2094C105.268 25.2859 105.273 25.3642 105.294 25.4388C105.314 25.5135 105.351 25.5827 105.402 25.6417C105.452 25.7006 105.514 25.748 105.585 25.7804C105.655 25.8128 105.732 25.8295 105.809 25.8293H108.583C109.023 25.8293 109.398 25.5098 109.468 25.0742L111.134 14.5245C111.146 14.4479 111.141 14.3696 111.12 14.2949C111.099 14.2203 111.062 14.1512 111.012 14.0922C110.961 14.0333 110.898 13.9861 110.828 13.9537C110.757 13.9213 110.681 13.9046 110.603 13.9047" fill="#888888"/>
<path d="M81.1127 13.9046H78.0141C77.7179 13.9046 77.4416 14.0515 77.2756 14.2971L73.002 20.5906L71.1905 14.5428C71.1352 14.3583 71.022 14.1965 70.8676 14.0815C70.7132 13.9664 70.5258 13.9041 70.3332 13.9038H67.2886C67.2032 13.9038 67.1191 13.9242 67.0432 13.9633C66.9673 14.0024 66.9018 14.059 66.8521 14.1284C66.8024 14.1979 66.7701 14.2782 66.7577 14.3626C66.7452 14.4471 66.7532 14.5333 66.7807 14.6141L70.1913 24.6269L66.9832 29.1536C66.9265 29.2339 66.893 29.3283 66.8863 29.4264C66.8795 29.5245 66.8999 29.6226 66.9451 29.7099C66.9903 29.7972 67.0586 29.8705 67.1426 29.9216C67.2266 29.9728 67.323 29.9999 67.4214 30H70.5166C70.8087 30 71.0834 29.8564 71.251 29.6158L81.5525 14.7469C81.6085 14.6665 81.6413 14.5724 81.6475 14.4746C81.6537 14.3769 81.633 14.2794 81.5877 14.1926C81.5424 14.1058 81.4742 14.033 81.3904 13.9823C81.3067 13.9315 81.2106 13.9047 81.1127 13.9046Z" fill="#888888"/>
<path d="M114.236 8.40446L111.594 25.2093C111.582 25.2859 111.587 25.3642 111.608 25.4388C111.629 25.5133 111.666 25.5824 111.716 25.6413C111.767 25.7002 111.829 25.7475 111.9 25.78C111.97 25.8124 112.047 25.8292 112.124 25.8292H114.78C115.22 25.8292 115.595 25.5089 115.664 25.0741L118.269 8.57043C118.281 8.49383 118.276 8.41552 118.255 8.34088C118.234 8.26625 118.197 8.19708 118.147 8.13815C118.096 8.07922 118.034 8.03193 117.963 7.99954C117.893 7.96715 117.816 7.95044 117.739 7.95055H114.766C114.638 7.95022 114.515 7.99575 114.417 8.07887C114.32 8.16198 114.256 8.27803 114.236 8.40446Z" fill="#888888"/>
<path d="M21.646 2.2621C20.2569 0.678785 17.7458 -1.90735e-05 14.5336 -1.90735e-05H5.21043C4.89244 -0.000188828 4.58483 0.113144 4.34295 0.319576C4.10107 0.526011 3.94081 0.811991 3.891 1.12606L0.0107203 25.7479C-0.00727204 25.8622 -0.000288594 25.9789 0.0311899 26.0902C0.0626684 26.2014 0.117894 26.3046 0.19306 26.3924C0.268227 26.4803 0.361548 26.5508 0.466595 26.5991C0.571642 26.6475 0.685918 26.6725 0.801548 26.6724H6.55725L8.00281 17.5036L7.958 17.7907C8.00685 17.4773 8.16604 17.1916 8.40688 16.9851C8.64773 16.7786 8.95439 16.665 9.27162 16.6646H12.0067C17.3799 16.6646 21.5871 14.4822 22.8161 8.16883C22.8526 7.98211 22.8841 7.80038 22.9115 7.6228C23.2767 5.28932 22.909 3.70102 21.6469 2.26293" fill="#888888"/>
<path d="M9.55541 7.65347C9.59902 7.37905 9.73901 7.12915 9.95026 6.94862C10.1615 6.7681 10.4302 6.66877 10.708 6.66847H18.0172C18.8827 6.66847 19.6901 6.72489 20.4278 6.84273C20.8312 6.90762 21.2302 6.99685 21.6228 7.10994C22.0686 7.23527 22.5 7.40717 22.9099 7.62277C23.2766 5.28846 22.9082 3.701 21.646 2.26207C20.2561 0.679588 17.7458 0.000785828 14.5336 0.000785828H5.20959C4.89188 0.00101089 4.58466 0.114519 4.34313 0.320917C4.1016 0.527315 3.94158 0.813078 3.89182 1.12687L0.00987483 25.7462C-0.00823925 25.8605 -0.00137513 25.9772 0.0299947 26.0886C0.0613644 26.1999 0.116494 26.303 0.191584 26.391C0.266674 26.4789 0.359939 26.5496 0.464952 26.598C0.569966 26.6464 0.68423 26.6715 0.799872 26.6715H6.5564L8.00196 17.5019L9.55541 7.65347Z" fill="#888888"/>
<path d="M22.9106 7.62199C22.8822 7.80457 22.8503 7.9866 22.8152 8.16801C21.5862 14.4805 17.379 16.6638 12.0058 16.6638H9.26989C8.95272 16.664 8.64607 16.7777 8.40533 16.9842C8.16459 17.1907 8.00561 17.4764 7.9571 17.7899L6.55635 26.6707L6.15803 29.1901C6.1422 29.2901 6.14823 29.3924 6.17574 29.4898C6.20324 29.5873 6.25155 29.6776 6.31733 29.7546C6.38312 29.8316 6.46482 29.8934 6.55679 29.9358C6.64877 29.9781 6.74884 30 6.85011 30H11.7021C12.2764 30 12.7643 29.5818 12.8548 29.015L12.9021 28.7677L13.8165 22.9722L13.8746 22.6519C13.9181 22.3772 14.0582 22.1271 14.2696 21.9465C14.4811 21.766 14.75 21.6668 15.0281 21.6669H15.7542C20.4543 21.6669 24.1346 19.7582 25.2101 14.2349C25.6582 11.928 25.4258 10.0003 24.2392 8.64683C23.8624 8.22721 23.4122 7.87991 22.9106 7.62199Z" fill="#5D5D5D"/>
<path d="M21.6235 7.11001C21.436 7.05441 21.2426 7.00462 21.0434 6.96064C20.8443 6.91666 20.6385 6.87766 20.4277 6.84447C19.6892 6.72414 18.8826 6.66771 18.0162 6.66771H10.7079C10.4297 6.66737 10.1606 6.76658 9.94921 6.94739C9.73781 7.1282 9.59808 7.37868 9.55528 7.65355L8.00184 17.5036L7.95703 17.7899C8.00554 17.4765 8.16452 17.1907 8.40526 16.9842C8.646 16.7777 8.95264 16.6641 9.26982 16.6638H12.0058C17.3789 16.6638 21.5862 14.4814 22.8151 8.16804C22.8516 7.98133 22.8823 7.80043 22.9106 7.62202C22.586 7.45219 22.2479 7.30953 21.8998 7.19549C21.8094 7.16561 21.7173 7.13823 21.6235 7.11001Z" fill="#888888"/>
</svg>
