<svg width="45" height="36" viewBox="0 0 45 36" fill="none" xmlns="http://www.w3.org/2000/svg">
<path fill-rule="evenodd" clip-rule="evenodd" d="M21.2405 0.569711C21.1425 0.39676 21.0003 0.252904 20.8286 0.152819C20.6568 0.0527334 20.4616 0 20.2628 0C20.064 0 19.8688 0.0527334 19.697 0.152819C19.5252 0.252904 19.3831 0.39676 19.2851 0.569711L0.1467 34.2569C0.049643 34.4277 -0.000933852 34.621 1.30557e-05 34.8174C0.000959963 35.0139 0.0533976 35.2067 0.152097 35.3766C0.250796 35.5464 0.392306 35.6875 0.562517 35.7856C0.732728 35.8837 0.925691 35.9355 1.12216 35.9358H39.4034C39.6001 35.9359 39.7933 35.8844 39.9638 35.7864C40.1344 35.6885 40.2762 35.5475 40.3752 35.3775C40.4741 35.2076 40.5268 35.0147 40.5278 34.818C40.5289 34.6213 40.4783 34.4278 40.3811 34.2569L35.2791 25.2777C33.4346 25.4867 31.5693 25.1494 29.9149 24.3076C28.2604 23.4658 26.8897 22.1566 25.9728 20.5426C25.0559 18.9285 24.6332 17.0808 24.7573 15.2286C24.8814 13.3765 25.5467 11.6016 26.6707 10.1243L21.2405 0.569711ZM18.5546 16.2693C18.5546 15.8222 18.7322 15.3934 19.0483 15.0773C19.3645 14.7611 19.7932 14.5835 20.2403 14.5835C20.6874 14.5835 21.1162 14.7611 21.4323 15.0773C21.7484 15.3934 21.926 15.8222 21.926 16.2693V21.8883C21.926 22.3353 21.7484 22.7641 21.4323 23.0802C21.1162 23.3964 20.6874 23.574 20.2403 23.574C19.7932 23.574 19.3645 23.3964 19.0483 23.0802C18.7322 22.7641 18.5546 22.3353 18.5546 21.8883V16.2693ZM21.926 25.8216V29.193H18.5546V25.8216H21.926Z" fill="white"/>
<path fill-rule="evenodd" clip-rule="evenodd" d="M27.9134 12.3138C27.3013 13.3971 26.9807 14.6207 26.9829 15.865C26.9798 17.1181 27.3029 18.3504 27.9204 19.4407C28.5379 20.531 29.4286 21.4419 30.5048 22.0836C31.5811 22.7254 32.8058 23.076 34.0586 23.1009C35.3114 23.1258 36.5492 22.8242 37.6501 22.2258L42.0442 26.6176L44.966 23.6957L40.5697 19.3016C41.4964 17.6233 41.7183 15.6456 41.1868 13.8036C40.6553 11.9616 39.4138 10.4062 37.7355 9.47958C36.0572 8.55294 34.0795 8.33096 32.2375 8.86249C30.3955 9.39401 28.8401 10.6355 27.9134 12.3138ZM37.3084 15.865C37.3084 16.6865 36.9821 17.4743 36.4013 18.0551C35.8205 18.6359 35.0327 18.9622 34.2112 18.9622C33.3898 18.9622 32.602 18.6359 32.0212 18.0551C31.4403 17.4743 31.114 16.6865 31.114 15.865C31.114 15.0436 31.4403 14.2558 32.0212 13.675C32.602 13.0941 33.3898 12.7678 34.2112 12.7678C35.0327 12.7678 35.8205 13.0941 36.4013 13.675C36.9821 14.2558 37.3084 15.0436 37.3084 15.865Z" fill="white"/>
</svg>
