<svg width="140" height="30" viewBox="0 0 140 30" fill="none" xmlns="http://www.w3.org/2000/svg">
<path d="M45.1313 12.1498V8.30041H41.2701V2.11676H35.7739V8.29971H32.8052V12.1491H35.7739V20.7075C35.7739 25.9366 39.1338 28.8796 45.1313 28.9228V24.3623C42.5886 24.3107 41.2701 22.7719 41.2701 19.8722V12.1498H45.1313ZM118.847 8.29762V28.2249H115.571V8.29762H118.847ZM126.03 8.29762V11.4588H126.108C127.47 9.04295 129.627 7.83467 132.584 7.83467C133.894 7.83467 134.987 8.01525 135.86 8.37571C136.733 8.73478 137.44 9.23678 137.981 9.87822C138.519 10.5211 138.9 11.2859 139.118 12.1714C139.336 13.0582 139.446 14.0406 139.446 15.1199V28.2249H136.169V14.7344C136.169 13.4996 135.809 12.5249 135.092 11.8053C134.372 11.0865 133.381 10.726 132.123 10.726C131.121 10.726 130.254 10.8801 129.52 11.1883C128.789 11.4986 128.179 11.9343 127.691 12.4991C127.193 13.0792 126.819 13.7549 126.591 14.4848C126.346 15.2426 126.225 16.0716 126.225 16.9703V28.2249H122.949V8.29762H126.03ZM61.7272 28.2249V25.4506H61.6101C60.9178 26.6066 60.0184 27.4419 58.9126 27.9558C57.8075 28.4696 56.6766 28.7269 55.5185 28.7269C54.055 28.7269 52.8544 28.5331 51.9174 28.1475C50.9775 27.7612 50.2392 27.2167 49.7002 26.509C49.1599 25.8027 48.7813 24.9431 48.5616 23.9272C48.3441 22.9114 48.2353 21.7888 48.2353 20.5534V8.29623H53.7078V19.5522C53.7078 21.1955 53.9644 22.424 54.4783 23.2321C54.9921 24.0423 55.9041 24.4473 57.2141 24.4473C58.7055 24.4473 59.7848 24.0039 60.452 23.117C61.1221 22.2316 61.456 20.7744 61.456 18.7441V8.29762H66.9299V28.2249H61.7272ZM75.7797 8.29762V11.0733H75.8955C76.5871 9.91657 77.4886 9.07433 78.5916 8.54862C79.6974 8.02222 80.8304 7.75867 81.985 7.75867C83.4491 7.75867 84.6518 7.95808 85.591 8.35479C86.5281 8.7536 87.2664 9.3058 87.8068 10.0128C88.3457 10.7198 88.7243 11.5808 88.9439 12.596C89.1615 13.6111 89.2723 14.7351 89.2723 15.9677V28.2249H83.7991V16.9703C83.7991 15.3263 83.5391 14.0992 83.0266 13.2883C82.5114 12.4796 81.5994 12.0752 80.2907 12.0752C78.8001 12.0752 77.7201 12.5186 77.0514 13.4048C76.3842 14.2923 76.0495 15.7509 76.0495 17.7805V28.2249H70.5757V8.29762H75.7797ZM98.774 23.4461C99.5967 24.2431 100.779 24.6412 102.32 24.6412C103.424 24.6412 104.377 24.3651 105.173 23.8129C105.97 23.26 106.46 22.6757 106.637 22.0587H111.456C110.687 24.448 109.502 26.1583 107.91 27.1846C106.317 28.2123 104.39 28.7276 102.131 28.7276C100.561 28.7276 99.1491 28.4752 97.8893 27.9753C96.6294 27.474 95.5619 26.7607 94.6904 25.8362C93.8175 24.911 93.1412 23.8066 92.6671 22.5216C92.1916 21.2366 91.9531 19.8227 91.9531 18.2811C91.9531 16.7905 92.1992 15.4044 92.6852 14.118C93.174 12.833 93.867 11.7217 94.7685 10.7832C95.6672 9.84545 96.7409 9.10709 97.9869 8.56675C99.2335 8.0278 100.615 7.75867 102.131 7.75867C103.827 7.75867 105.305 8.08636 106.563 8.74036C107.82 9.39574 108.855 10.2763 109.665 11.3821C110.475 12.4879 111.06 13.7457 111.421 15.1597C111.781 16.5715 111.907 18.0496 111.806 19.5912H97.4291C97.5016 21.3642 97.9499 22.6492 98.774 23.4461ZM104.96 12.9606C104.306 12.2418 103.309 11.8813 101.974 11.8813C101.099 11.8813 100.373 12.0319 99.7948 12.3255C99.2154 12.6218 98.7552 12.9871 98.4094 13.4236C98.0608 13.8607 97.8167 14.3237 97.6738 14.8111C97.5337 15.2998 97.4493 15.7363 97.4249 16.1225H106.329C106.072 14.7344 105.617 13.6816 104.96 12.9606ZM119.325 2.11676C119.324 2.67798 119.101 3.21613 118.704 3.61284C118.307 4.00955 117.769 4.23231 117.208 4.23213C116.647 4.23194 116.108 4.00882 115.712 3.61186C115.315 3.21489 115.092 2.67658 115.092 2.11537C115.093 1.55415 115.316 1.016 115.713 0.619288C116.11 0.22258 116.648 -0.000184799 117.209 1.1503e-07C117.77 0.000185029 118.309 0.223304 118.705 0.620274C119.102 1.01724 119.325 1.55555 119.325 2.11676Z" fill="#888888"/>
<path d="M13.4208 10.4757C12.1479 10.4742 10.9275 9.96792 10.0273 9.06789C9.12714 8.16785 8.62069 6.94754 8.61903 5.67461C8.61671 5.04398 8.73965 4.41916 8.98069 3.83641C9.22174 3.25366 9.57611 2.72457 10.0232 2.27985C10.4681 1.83263 10.9973 1.47808 11.5801 1.23669C12.163 0.995308 12.7879 0.871881 13.4187 0.873552C14.6917 0.875028 15.9122 1.3814 16.8124 2.28158C17.7126 3.18177 18.219 4.40226 18.2204 5.67531C18.2195 6.94804 17.7136 8.16839 16.8137 9.06841C15.9138 9.96844 14.6935 10.4746 13.4208 10.4757ZM0 12.3972C0 12.1455 0.204285 11.9412 0.456679 11.9412H13.3803C15.7118 11.9412 17.6083 13.8307 17.6083 16.1538V19.9077C17.6083 19.9679 17.5964 20.0275 17.5733 20.0831C17.5503 20.1388 17.5165 20.1893 17.4739 20.2318C17.4313 20.2744 17.3807 20.3081 17.325 20.3311C17.2694 20.3541 17.2097 20.3658 17.1495 20.3657C17.1418 20.3657 17.1321 20.3657 17.123 20.3671L4.2119 20.365C3.09505 20.3636 2.02438 19.9192 1.23478 19.1293C0.445171 18.3394 0.00110683 17.2686 0 16.1517L0 12.3972ZM23.0313 11.8806H26.7342C26.9852 11.8806 27.1902 12.0863 27.1902 12.3366V16.0932C27.1891 17.2099 26.745 18.2806 25.9553 19.0702C25.1657 19.8599 24.095 20.304 22.9783 20.3051L19.2851 20.3044C19.2243 20.3058 19.1638 20.295 19.1072 20.2728C19.0506 20.2505 18.999 20.2171 18.9554 20.1747C18.9118 20.1322 18.8772 20.0815 18.8535 20.0255C18.8297 19.9694 18.8174 19.9092 18.8173 19.8484V16.0939C18.8186 14.9767 19.263 13.9057 20.053 13.1158C20.843 12.3259 21.9141 11.8817 23.0313 11.8806ZM17.1502 21.5761H9.69066C9.56965 21.5765 9.45371 21.6247 9.36814 21.7103C9.28258 21.7958 9.23435 21.9118 9.23398 22.0328V29.5447C9.23398 29.8005 9.44035 29.9992 9.70251 29.9992L13.395 29.9999C14.5121 29.9988 15.5832 29.5546 16.3733 28.7647C17.1633 27.9748 17.6077 26.9038 17.609 25.7866V22.0321C17.6081 21.911 17.5593 21.7951 17.4734 21.7097C17.3875 21.6243 17.2713 21.5763 17.1502 21.5761Z" fill="#888888"/>
</svg>
