<svg width="45" height="45" viewBox="0 0 45 45" fill="none" xmlns="http://www.w3.org/2000/svg">
<path d="M14.3847 33.7141L22.4761 25.6227L30.5675 33.7141L33.7141 30.5675L25.6227 22.4761L33.7141 14.3847L30.5675 11.238L22.4761 19.3294L14.3847 11.238L11.238 14.3847L19.3294 22.4761L11.238 30.5675L14.3847 33.7141ZM22.4761 44.9522C19.3669 44.9522 16.445 44.3618 13.7104 43.181C10.9758 42.0003 8.5971 40.3993 6.57426 38.3779C4.55141 36.3566 2.95036 33.9778 1.77112 31.2417C0.591873 28.5057 0.00150125 25.5838 2.84507e-06 22.4761C-0.00149556 19.3684 0.588876 16.4465 1.77112 13.7104C2.95336 10.9743 4.55441 8.5956 6.57426 6.57425C8.59411 4.5529 10.9728 2.95186 13.7104 1.77112C16.448 0.590372 19.3699 0 22.4761 0C25.5823 0 28.5042 0.590372 31.2417 1.77112C33.9793 2.95186 36.3581 4.5529 38.3779 6.57425C40.3978 8.5956 41.9995 10.9743 43.1833 13.7104C44.367 16.4465 44.9567 19.3684 44.9522 22.4761C44.9477 25.5838 44.3573 28.5057 43.181 31.2417C42.0048 33.9778 40.4038 36.3566 38.3779 38.3779C36.3521 40.3993 33.9733 42.001 31.2417 43.1833C28.5102 44.3655 25.5883 44.9552 22.4761 44.9522ZM22.4761 40.4569C27.4957 40.4569 31.7475 38.715 35.2313 35.2313C38.715 31.7475 40.4569 27.4957 40.4569 22.4761C40.4569 17.4564 38.715 13.2047 35.2313 9.7209C31.7475 6.23711 27.4957 4.49522 22.4761 4.49522C17.4564 4.49522 13.2047 6.23711 9.72091 9.7209C6.23711 13.2047 4.49522 17.4564 4.49522 22.4761C4.49522 27.4957 6.23711 31.7475 9.72091 35.2313C13.2047 38.715 17.4564 40.4569 22.4761 40.4569Z" fill="white"/>
</svg>
