<svg width="20" height="16" viewBox="0 0 20 16" fill="none" xmlns="http://www.w3.org/2000/svg">
<path d="M13.7033 0.014076C14.0953 0.074076 14.3653 0.301076 14.5233 0.534076C14.6723 0.754076 14.6903 1.06408 14.8603 1.26008C15.1563 1.60108 15.7053 1.70108 16.0303 2.05608C16.4435 1.89662 16.8864 1.82906 17.3283 1.85808C17.5363 1.86908 17.7543 1.49308 17.9003 1.37808C18.0803 1.23608 18.5493 0.948076 19.1153 1.16308C19.7183 1.42508 20.0253 1.99308 19.9703 2.63608V2.63908C19.8513 3.98308 19.3133 5.28308 17.8853 6.06408C17.658 6.19074 17.43 6.31408 17.1993 6.43408C16.9753 7.86608 16.6253 9.27208 15.8093 10.4921C15.6269 10.7613 15.4282 11.0191 15.2143 11.2641C15.6263 11.4501 15.9993 11.6541 16.1653 12.1091C16.2553 12.3584 16.2727 12.6282 16.2153 12.8871C16.0843 13.4701 15.6153 13.8871 15.0073 14.0171H15.0023C14.6123 14.0981 14.0483 14.1871 13.4353 14.1301C13.0734 14.1073 12.7143 14.0517 12.3623 13.9641C10.9093 15.0151 9.58634 15.1661 8.49934 15.2291C6.40334 15.3521 4.55234 14.6991 2.97534 13.3981C1.55734 12.2281 0.58234 10.7271 0.18034 8.92508C-0.21966 6.93908 0.0103402 4.91808 1.22834 3.24408C2.23534 1.92108 3.62834 1.05908 5.29834 0.873076C5.96142 0.793431 6.63288 0.818063 7.28834 0.946076C8.08134 0.676076 8.84134 0.356076 9.69834 0.352076C10.0933 0.350076 10.5773 0.413076 10.9383 0.702076C11.1213 0.848076 11.4523 1.21508 11.3573 1.76208C11.3338 1.90232 11.2822 2.0364 11.2058 2.15631C11.1293 2.27623 11.0295 2.37953 10.9123 2.46008C11.3933 2.80308 11.7383 3.17008 12.0713 3.66708C11.8223 2.69008 11.9183 1.62008 12.4063 0.729076L12.4103 0.721076C12.6753 0.245076 13.1453 -0.071924 13.7033 0.014076ZM2.02934 6.41408C1.94634 6.98408 1.96634 7.58408 2.07734 8.21208C2.33434 9.67308 3.07434 10.8871 4.24834 11.8561C5.45834 12.8541 6.81734 13.3261 8.38134 13.2341L8.38234 13.2331C8.90534 13.2031 9.41834 13.1551 9.95034 12.9851C9.07034 12.3691 8.44434 11.5031 7.94634 10.7021C7.53734 10.0441 7.18734 9.39008 6.84134 8.82708C6.48734 8.25108 6.16534 7.81508 5.82434 7.51908C5.17634 6.95908 4.64134 6.69808 4.14234 6.54908C3.82934 6.45608 2.17534 5.95008 2.02934 6.41408ZM8.69934 2.56108C8.22334 2.72308 7.67334 3.04908 7.15134 2.95008C6.51734 2.83008 6.14034 2.79008 5.52134 2.85908C4.43734 2.97908 3.58434 3.46208 2.92734 4.31108C3.47634 4.37608 4.09434 4.44908 4.71234 4.63308C5.49734 4.86708 6.28034 5.27008 7.13234 6.00608C7.71234 6.50808 8.16434 7.15808 8.54534 7.77908C8.93534 8.41308 9.28334 9.06508 9.64434 9.64608C10.3893 10.8461 11.0993 11.6021 12.1423 11.7761C12.2743 11.7981 12.4583 11.8691 12.5753 11.9181C12.5266 11.7577 12.5185 11.5877 12.5519 11.4234C12.5852 11.2592 12.6589 11.1058 12.7663 10.9771C13.2223 10.4381 13.7523 9.97008 14.1463 9.38008C14.5533 8.77308 14.9613 7.88508 15.1843 6.37808C15.2353 6.03208 15.2463 5.64608 15.4163 5.33108C15.5543 5.07208 15.7903 4.86008 16.1053 4.74508C16.5913 4.51708 17.1403 4.27608 17.4903 3.85308C17.0533 3.88308 16.7023 3.85108 16.3623 4.19608C16.233 4.32688 16.0702 4.4195 15.8917 4.46374C15.7131 4.50798 15.5259 4.50212 15.3505 4.44682C15.175 4.39152 15.0183 4.28892 14.8974 4.15029C14.7765 4.01166 14.6962 3.84239 14.6653 3.66108C14.6043 3.30308 14.2623 3.23908 13.9843 3.08008C14.0733 3.51008 14.2763 3.86208 14.5423 4.09008C14.7863 4.27508 15.0133 4.45508 15.1303 4.75108C15.3913 5.41308 14.9443 6.01208 14.6073 6.54608C14.4333 6.82108 14.2963 7.07908 13.9873 7.22908C13.5213 7.45408 13.0923 7.26408 13.0233 7.23608L13.0143 7.23208C12.4303 6.98808 11.9743 6.72108 11.4843 6.24208C11.0613 5.83208 10.7533 5.31108 10.5373 4.97308C10.1803 4.41608 9.74834 4.20408 9.29834 3.76708C8.96834 3.44608 8.73034 3.02708 8.69934 2.56108Z" fill="#6881FD"/>
</svg>
