<svg width="18" height="18" viewBox="0 0 18 18" fill="none" xmlns="http://www.w3.org/2000/svg">
<path d="M2.0137 4.5097C2.93342 3.05229 4.29918 1.93084 5.90769 1.31226C7.51619 0.693691 9.28145 0.611071 10.9407 1.0767C11.0695 1.11006 11.1904 1.16878 11.2962 1.24943C11.402 1.33009 11.4907 1.43105 11.557 1.5464C11.6233 1.66175 11.6659 1.78918 11.6824 1.92121C11.6988 2.05325 11.6887 2.18724 11.6527 2.31533C11.6167 2.44342 11.5555 2.56304 11.4727 2.66718C11.3899 2.77132 11.2871 2.85789 11.1704 2.92181C11.0537 2.98573 10.9255 3.02572 10.7931 3.03944C10.6608 3.05316 10.527 3.04033 10.3997 3.0017C9.33323 2.70326 8.20499 2.70565 7.13979 3.00861C6.07459 3.31156 5.11396 3.90327 4.36416 4.71827C3.61437 5.53328 3.10464 6.53981 2.89136 7.62652C2.67808 8.71323 2.76957 9.83776 3.1557 10.8757C3.7777 12.5497 4.0077 14.9657 2.4127 16.5607L1.7077 17.2657C1.52019 17.4533 1.26583 17.5588 1.00056 17.5589C0.735286 17.559 0.480843 17.4537 0.293203 17.2662C0.105562 17.0787 9.38336e-05 16.8243 6.25814e-08 16.5591C-9.37084e-05 16.2938 0.105195 16.0393 0.292703 15.8517L0.998703 15.1467C1.7467 14.3967 1.8137 13.0037 1.2817 11.5717C0.851018 10.4177 0.692993 9.17965 0.819975 7.95442C0.946956 6.72918 1.3555 5.5509 2.0137 4.5097ZM15.8477 0.292702C16.0353 0.105194 16.2898 -9.37076e-05 16.5551 6.25804e-08C16.8203 9.38327e-05 17.0747 0.105562 17.2622 0.293202C17.4497 0.480843 17.555 0.735286 17.5549 1.00056C17.5548 1.26583 17.4493 1.52019 17.2617 1.7077L16.5587 2.4107C15.8097 3.1597 15.7427 4.5537 16.2757 5.9867C16.7903 7.37067 16.912 8.87 16.6274 10.3188C16.3428 11.7677 15.6629 13.1096 14.6631 14.196C13.6632 15.2825 12.3823 16.0713 10.9621 16.475C9.54182 16.8787 8.03757 16.8818 6.6157 16.4837C6.3603 16.4118 6.14391 16.2414 6.01413 16.01C5.88436 15.7786 5.85183 15.5051 5.9237 15.2497C5.99558 14.9943 6.16597 14.7779 6.39739 14.6481C6.62881 14.5184 6.9023 14.4858 7.1577 14.5577C8.22417 14.8561 9.35242 14.8538 10.4176 14.5508C11.4828 14.2478 12.4434 13.6561 13.1932 12.8411C13.943 12.0261 14.4528 11.0196 14.666 9.93289C14.8793 8.84617 14.7878 7.72165 14.4017 6.6837C14.1977 6.13581 14.0568 5.56648 13.9817 4.9867L10.1917 8.7797C10.0995 8.87521 9.98911 8.95139 9.86711 9.0038C9.7451 9.05621 9.61388 9.0838 9.4811 9.08495C9.34832 9.08611 9.21664 9.0608 9.09375 9.01052C8.97085 8.96024 8.8592 8.88599 8.76531 8.7921C8.67141 8.6982 8.59716 8.58655 8.54688 8.46366C8.4966 8.34076 8.4713 8.20908 8.47245 8.0763C8.47361 7.94352 8.50119 7.8123 8.5536 7.6903C8.60601 7.56829 8.68219 7.45795 8.7777 7.3657L15.8477 0.292702Z" fill="#16181E"/>
</svg>
