<svg width="18" height="18" viewBox="0 0 18 18" fill="none" xmlns="http://www.w3.org/2000/svg">
<path d="M2.51241 11.9622C2.01371 11.7221 1.58265 11.3616 1.25812 10.9132C0.93359 10.4649 0.725813 9.94276 0.653541 9.39402C0.581268 8.84528 0.646774 8.28718 0.844147 7.77008C1.04152 7.25299 1.36455 6.79318 1.78408 6.43216M1.80908 6.36466C1.53578 5.9557 1.41599 5.46323 1.47093 4.97444C1.52586 4.48564 1.75197 4.03204 2.10922 3.69395C2.46648 3.35585 2.93184 3.15507 3.42291 3.12713C3.91399 3.0992 4.39912 3.24592 4.79241 3.54133M4.99074 3.59549C4.8578 3.31303 4.79004 3.0043 4.79247 2.69213C4.7949 2.37996 4.86745 2.07232 5.00477 1.79196C5.14209 1.5116 5.34065 1.26568 5.5858 1.07239C5.83094 0.879091 6.11639 0.74336 6.42105 0.675225C6.7257 0.60709 7.04178 0.608293 7.34591 0.678746C7.65003 0.749199 7.93444 0.8871 8.17811 1.08226C8.42177 1.27741 8.61846 1.52483 8.75364 1.80623C8.88881 2.08763 8.95902 2.39581 8.95907 2.70799M8.95907 2.70799V15.6247M8.95907 2.70799C8.95913 2.39581 9.02934 2.08763 9.16451 1.80623C9.29969 1.52483 9.49638 1.27741 9.74004 1.08226C9.98371 0.8871 10.2681 0.749199 10.5722 0.678746C10.8764 0.608293 11.1924 0.60709 11.4971 0.675225C11.8018 0.74336 12.0872 0.879091 12.3324 1.07239C12.5775 1.26568 12.7761 1.5116 12.9134 1.79196C13.0507 2.07232 13.1232 2.37996 13.1257 2.69213C13.1281 3.0043 13.0603 3.31303 12.9274 3.59549M8.95907 15.6247C8.95907 16.0667 8.78348 16.4906 8.47092 16.8032C8.15836 17.1157 7.73444 17.2913 7.29241 17.2913C6.85038 17.2913 6.42646 17.1157 6.1139 16.8032C5.80134 16.4906 5.62574 16.0667 5.62574 15.6247M8.95907 15.6247C8.95907 16.0667 9.13467 16.4906 9.44723 16.8032C9.75979 17.1157 10.1837 17.2913 10.6257 17.2913M8.95907 4.79133C8.95907 5.45437 9.22247 6.09025 9.69131 6.55909C10.1601 7.02793 10.796 7.29133 11.4591 7.29133M16.1341 6.43216C16.4979 6.74471 16.7898 7.13228 16.9898 7.56827C17.1897 8.00426 17.2929 8.47834 17.2924 8.95799C17.2924 9.54383 17.1416 10.0947 16.8757 10.573M16.1091 6.36466C16.3824 5.9557 16.5022 5.46323 16.4472 4.97444C16.3923 4.48564 16.1662 4.03204 15.8089 3.69395C15.4517 3.35585 14.9863 3.15507 14.4952 3.12713C14.0042 3.0992 13.519 3.24592 13.1257 3.54133M16.0424 16.0413L17.2924 17.2913M12.2924 14.3747C12.2924 14.9272 12.5119 15.4571 12.9026 15.8478C13.2933 16.2385 13.8232 16.458 14.3757 16.458C14.9283 16.458 15.4582 16.2385 15.8489 15.8478C16.2396 15.4571 16.4591 14.9272 16.4591 14.3747C16.4591 13.8221 16.2396 13.2922 15.8489 12.9015C15.4582 12.5108 14.9283 12.2913 14.3757 12.2913C13.8232 12.2913 13.2933 12.5108 12.9026 12.9015C12.5119 13.2922 12.2924 13.8221 12.2924 14.3747Z" stroke="#16181E" stroke-width="1.25" stroke-linecap="round" stroke-linejoin="round"/>
</svg>
