<svg width="17" height="16" viewBox="0 0 17 16" fill="none" xmlns="http://www.w3.org/2000/svg">
<path d="M1.66612 14.0278L0.957789 13.7361C0.527234 13.5556 0.239178 13.2431 0.0936225 12.7986C-0.051933 12.3542 -0.0277665 11.9167 0.166122 11.4861L1.66612 8.23611V14.0278ZM4.99946 15.8611C4.54112 15.8611 4.1489 15.6981 3.82279 15.3719C3.49668 15.0458 3.33334 14.6533 3.33279 14.1944V9.19444L5.54112 15.3194C5.58279 15.4167 5.62446 15.5106 5.66612 15.6011C5.70779 15.6917 5.76334 15.7783 5.83279 15.8611H4.99946ZM9.29112 15.7778C8.84668 15.9444 8.41612 15.9236 7.99946 15.7153C7.58279 15.5069 7.29112 15.1806 7.12446 14.7361L3.41612 4.56944C3.24946 4.125 3.26334 3.69111 3.45779 3.26778C3.65223 2.84444 3.97168 2.55611 4.41612 2.40278L10.7078 0.111111C11.1522 -0.0555556 11.5828 -0.0347222 11.9995 0.173611C12.4161 0.381944 12.7078 0.708333 12.8745 1.15278L16.5828 11.3194C16.7495 11.7639 16.7356 12.1981 16.5411 12.6219C16.3467 13.0458 16.0272 13.3339 15.5828 13.4861L9.29112 15.7778ZM7.49946 5.86111C7.73557 5.86111 7.93362 5.78111 8.09362 5.62111C8.25362 5.46111 8.33335 5.26333 8.33279 5.02778C8.33223 4.79222 8.25251 4.59444 8.09362 4.43444C7.93473 4.27444 7.73668 4.19444 7.49946 4.19444C7.26223 4.19444 7.06446 4.27444 6.90612 4.43444C6.74779 4.59444 6.66779 4.79222 6.66612 5.02778C6.66446 5.26333 6.74446 5.46139 6.90612 5.62194C7.06779 5.7825 7.26557 5.86222 7.49946 5.86111ZM8.70779 14.1944L14.9995 11.9028L11.2911 1.69444L4.99946 3.98611L8.70779 14.1944Z" fill="#16181E"/>
</svg>
